# xmcd
#
# Track frame offsets:
#	150
#	20669
#	32215
#	45411
#	55499
#	66069
#	79141
#	90836
#	105523
#	116168
#	126539
#	137785
#	153030
#	166377
#	181483
#	194024
#	207282
#	220127
#	234665
#	250433
#	262790
#	274983
#	289115
#	305404
#
# Disc length: 4246 seconds
#
# Revision: 0
# Processed by: cddbd v1.5.2PL0 Copyright (c) Steve Scherf et al.
# Submitted via: EasyCDDAExtractor 10.0.2.1
#
DISCID=62109418
DTITLE=100 Folk Celsius - 25 év - 25 dal gyerekeknek
DYEAR=2001
DGENRE=Country
TTITLE0=Paff, a buvös sárkány
TTITLE1=Három rigó
TTITLE2=Hány lába van
TTITLE3=Pocok és az elefánt
TTITLE4=A nagy ho-ho-ho horgász
TTITLE5=Észak
TTITLE6=Turó rudi
TTITLE7=Kis herceg
TTITLE8=Kiváncsi fáncsi
TTITLE9=Bmx, a csodabringa
TTITLE10=Nyelvtöro
TTITLE11=Miki manó meséi
TTITLE12=Zebrabál
TTITLE13=Európa, ázsia, afrika
TTITLE14=Balra nézek, jobbra nézek
TTITLE15=Ha valakinek az járna a fejében
TTITLE16=Tök jó
TTITLE17=Indulhat a buli
TTITLE18=Nyunyó a hunyó
TTITLE19=A kutyám meg én
TTITLE20=Énekelj kishaver
TTITLE21=Garfields csak egy van a világon
TTITLE22=Lasagna
TTITLE23=Szülidal
EXTD=
EXTT0=
EXTT1=
EXTT2=
EXTT3=
EXTT4=
EXTT5=
EXTT6=
EXTT7=
EXTT8=
EXTT9=
EXTT10=
EXTT11=
EXTT12=
EXTT13=
EXTT14=
EXTT15=
EXTT16=
EXTT17=
EXTT18=
EXTT19=
EXTT20=
EXTT21=
EXTT22=
EXTT23=
PLAYORDER=
